<svg width="317" height="303" viewBox="0 0 317 303" fill="none" xmlns="http://www.w3.org/2000/svg">
<g clip-path="url(#clip0_3_47)">
<path d="M314.834 111.302C312.132 103.093 306.734 95.933 299.439 90.8792C292.144 85.8254 283.338 83.1467 274.324 83.2391H216.617L199.089 31.0976C196.333 22.8901 190.917 15.7302 183.622 10.6503C176.327 5.57043 167.53 2.83313 158.5 2.83313C149.47 2.83313 140.673 5.57043 133.378 10.6503C126.083 15.7302 120.667 22.8901 117.911 31.0976L100.383 83.2391H42.6761C33.6911 83.2513 24.9399 85.9733 17.6725 91.0163C10.4051 96.0592 4.99329 103.165 2.21004 111.319C-0.573215 119.473 -0.585534 128.258 2.17484 136.419C4.93521 144.58 10.3271 151.7 17.5803 156.762L64.5491 189.539L46.6915 242.324C43.8056 250.51 43.769 259.368 46.5872 267.576C49.4054 275.784 54.9275 282.903 62.3301 287.872C69.606 293 78.4231 295.747 87.4676 295.704C96.5122 295.661 105.3 292.83 112.522 287.632L158.5 255.334L204.491 287.594C211.754 292.693 220.524 295.463 229.539 295.505C238.555 295.547 247.352 292.859 254.667 287.828C261.981 282.797 267.436 275.682 270.246 267.505C273.057 259.329 273.079 250.513 270.309 242.324L252.451 189.539L299.473 156.762C306.809 151.764 312.264 144.644 315.03 136.457C317.797 128.269 317.728 119.449 314.834 111.302ZM283.887 136.402L229.151 174.588C226.903 176.153 225.23 178.356 224.372 180.883C223.513 183.409 223.513 186.13 224.37 188.657L245.173 250.052C246.226 253.166 246.217 256.518 245.147 259.627C244.078 262.735 242.003 265.44 239.222 267.353C236.44 269.265 233.095 270.286 229.667 270.27C226.239 270.253 222.904 269.199 220.143 267.26L166.319 229.44C164.052 227.85 161.313 226.993 158.5 226.993C155.687 226.993 152.948 227.85 150.681 229.44L96.8567 267.26C94.0973 269.225 90.7536 270.301 87.3106 270.331C83.8675 270.361 80.504 269.343 77.7077 267.426C74.9113 265.508 72.8274 262.79 71.7582 259.667C70.6889 256.543 70.6899 253.175 71.7609 250.052L92.63 188.657C93.4875 186.13 93.4869 183.409 92.6282 180.883C91.7696 178.356 90.0968 176.153 87.8486 174.588L33.1133 136.402C30.3568 134.475 28.3085 131.767 27.2612 128.663C26.2139 125.559 26.221 122.219 27.2816 119.119C28.3422 116.019 30.4019 113.319 33.1667 111.403C35.9314 109.488 39.2597 108.455 42.6761 108.453H110.039C112.835 108.453 115.559 107.605 117.819 106.033C120.079 104.461 121.757 102.245 122.613 99.7035L143.086 38.8003C144.137 35.6838 146.197 32.9658 148.969 31.0377C151.741 29.1096 155.083 28.0708 158.513 28.0708C161.943 28.0708 165.285 29.1096 168.058 31.0377C170.83 32.9658 172.89 35.6838 173.941 38.8003L194.413 99.7035C195.269 102.245 196.948 104.461 199.207 106.033C201.467 107.605 204.191 108.453 206.988 108.453H274.35C277.767 108.455 281.095 109.488 283.86 111.403C286.624 113.319 288.684 116.019 289.745 119.119C290.805 122.219 290.813 125.559 289.765 128.663C288.718 131.767 286.67 134.475 283.913 136.402H283.887Z" fill="#FFA900" fill-opacity="0.25"/>
</g>
<defs>
<clipPath id="clip0_3_47">
<rect width="317" height="302.562" fill="white" transform="translate(0 0.437988)"/>
</clipPath>
</defs>
</svg>
