<svg width="70" height="70" viewBox="0 0 70 70" fill="none" xmlns="http://www.w3.org/2000/svg">
<g clip-path="url(#clip0_3_34)">
<path d="M69.5217 25.6492C68.925 23.7501 67.7331 22.0935 66.1222 20.9243C64.5112 19.755 62.5667 19.1353 60.5762 19.1567H47.8333L43.9629 7.09334C43.3543 5.19447 42.1583 3.53797 40.5474 2.3627C38.9365 1.18743 36.994 0.554138 35 0.554138C33.006 0.554138 31.0635 1.18743 29.4526 2.3627C27.8417 3.53797 26.6457 5.19447 26.0371 7.09334L22.1667 19.1567H9.42375C7.43967 19.1595 5.50722 19.7893 3.90244 20.956C2.29765 22.1227 1.10262 23.7667 0.488019 25.6532C-0.126579 27.5397 -0.1293 29.5722 0.480246 31.4603C1.08979 33.3484 2.28043 34.9957 3.88208 36.1667L14.2537 43.75L10.3104 55.9621C9.67316 57.8561 9.66508 59.9054 10.2874 61.8044C10.9097 63.7034 12.1291 65.3505 13.7637 66.5C15.3704 67.6865 17.3174 68.322 19.3146 68.3121C21.3118 68.3021 23.2524 67.647 24.8471 66.4446L35 58.9721L45.1558 66.4358C46.7596 67.6155 48.6961 68.2562 50.6869 68.2659C52.6778 68.2756 54.6204 67.6538 56.2356 66.4898C57.8507 65.3259 59.0552 63.6797 59.6758 61.7881C60.2965 59.8964 60.3013 57.8567 59.6896 55.9621L55.7463 43.75L66.1296 36.1667C67.7495 35.0104 68.9541 33.3632 69.5651 31.4689C70.176 29.5747 70.1608 27.5341 69.5217 25.6492ZM62.6879 31.4563L50.6012 40.2908C50.1048 40.653 49.7354 41.1627 49.5458 41.7472C49.3562 42.3318 49.3561 42.9612 49.5454 43.5458L54.1392 57.75C54.3716 58.4704 54.3696 59.246 54.1335 59.9653C53.8974 60.6845 53.4392 61.3103 52.825 61.7528C52.2108 62.1952 51.472 62.4315 50.715 62.4276C49.958 62.4238 49.2218 62.18 48.6121 61.7313L36.7267 52.9813C36.2261 52.6135 35.6211 52.4152 35 52.4152C34.3789 52.4152 33.7739 52.6135 33.2733 52.9813L21.3879 61.7313C20.7786 62.186 20.0402 62.4349 19.2799 62.4418C18.5196 62.4487 17.7769 62.2132 17.1594 61.7696C16.5419 61.326 16.0818 60.6972 15.8457 59.9745C15.6095 59.2518 15.6098 58.4726 15.8462 57.75L20.4546 43.5458C20.6439 42.9612 20.6438 42.3318 20.4542 41.7472C20.2646 41.1627 19.8952 40.653 19.3987 40.2908L7.31208 31.4563C6.70338 31.0106 6.2511 30.3839 6.01983 29.6658C5.78856 28.9478 5.79013 28.1749 6.02433 27.4578C6.25852 26.7407 6.71336 26.1159 7.32387 25.6727C7.93438 25.2295 8.66933 24.9905 9.42375 24.99H24.2987C24.9163 24.99 25.5178 24.794 26.0168 24.4302C26.5158 24.0665 26.8865 23.5537 27.0754 22.9658L31.5962 8.87543C31.8283 8.15438 32.2832 7.52557 32.8953 7.07949C33.5075 6.6334 34.2455 6.39307 35.0029 6.39307C35.7604 6.39307 36.4983 6.6334 37.1105 7.07949C37.7227 7.52557 38.1775 8.15438 38.4096 8.87543L42.9304 22.9658C43.1194 23.5537 43.49 24.0665 43.989 24.4302C44.488 24.794 45.0896 24.99 45.7071 24.99H60.5821C61.3365 24.9905 62.0715 25.2295 62.682 25.6727C63.2925 26.1159 63.7473 26.7407 63.9815 27.4578C64.2157 28.1749 64.2173 28.9478 63.986 29.6658C63.7547 30.3839 63.3024 31.0106 62.6938 31.4563H62.6879Z" fill="#FFA900"/>
</g>
<defs>
<clipPath id="clip0_3_34">
<rect width="70" height="70" fill="white"/>
</clipPath>
</defs>
</svg>
