<svg width="61" height="49" viewBox="0 0 61 49" fill="none" xmlns="http://www.w3.org/2000/svg">
<path d="M54.7551 12.2673C54.7907 12.7953 54.7907 13.3259 54.7907 13.8589C54.7907 30.1429 42.1993 48.9195 19.182 48.9195V48.9094C12.383 48.9195 5.72383 47.0025 0 43.3863C0.988708 43.504 1.9825 43.5615 2.97883 43.564C8.61625 43.569 14.091 41.7071 18.5211 38.2787C13.1658 38.1786 8.46883 34.7401 6.82946 29.72C8.70521 30.0754 10.6369 30.0028 12.4796 29.5098C6.63883 28.3486 2.44 23.296 2.44 17.43C2.44 17.3775 2.44 17.3249 2.44 17.2749C4.18104 18.2308 6.12796 18.7589 8.12063 18.8164C2.62046 15.2003 0.922625 7.99798 4.24458 2.36727C10.5988 10.0651 19.975 14.7448 30.0374 15.2428C29.0284 10.9635 30.4085 6.47894 33.6567 3.46839C38.6969 -1.19884 46.6243 -0.9586 51.3645 4.00393C54.168 3.46088 56.8545 2.44735 59.3123 1.0134C58.377 3.86629 56.4225 6.28874 53.8096 7.83031C56.2928 7.53751 58.715 6.88435 61 5.88834C59.32 8.36335 57.2053 10.523 54.7551 12.2673Z" fill="#FFA900"/>
</svg>
