<svg width="50" height="42" viewBox="0 0 50 42" fill="none" xmlns="http://www.w3.org/2000/svg">
<path d="M39.5833 0.0231934H10.4167C7.65501 0.026152 5.00741 1.00865 3.05462 2.75518C1.10184 4.50171 0.00330804 6.86966 0 9.33962L0 31.699C0.00330804 34.169 1.10184 36.5369 3.05462 38.2835C5.00741 40.03 7.65501 41.0125 10.4167 41.0155H39.5833C42.345 41.0125 44.9926 40.03 46.9454 38.2835C48.8982 36.5369 49.9967 34.169 50 31.699V9.33962C49.9967 6.86966 48.8982 4.50171 46.9454 2.75518C44.9926 1.00865 42.345 0.026152 39.5833 0.0231934ZM10.4167 3.74976H39.5833C40.8308 3.75196 42.049 4.08798 43.0812 4.71458C44.1133 5.34118 44.9122 6.2297 45.375 7.26578L29.4208 21.5367C28.2467 22.5826 26.6571 23.1698 25 23.1698C23.3429 23.1698 21.7533 22.5826 20.5792 21.5367L4.625 7.26578C5.08781 6.2297 5.88669 5.34118 6.91885 4.71458C7.951 4.08798 9.1692 3.75196 10.4167 3.74976ZM39.5833 37.2889H10.4167C8.75906 37.2889 7.16935 36.7 5.99725 35.6517C4.82515 34.6034 4.16667 33.1815 4.16667 31.699V12.1345L17.6333 24.1714C19.5888 25.9159 22.238 26.8956 25 26.8956C27.762 26.8956 30.4112 25.9159 32.3667 24.1714L45.8333 12.1345V31.699C45.8333 33.1815 45.1749 34.6034 44.0027 35.6517C42.8306 36.7 41.2409 37.2889 39.5833 37.2889Z" fill="#FFA900"/>
</svg>
