<svg width="52" height="36" viewBox="0 0 52 36" fill="none" xmlns="http://www.w3.org/2000/svg">
<path fill-rule="evenodd" clip-rule="evenodd" d="M0.677368 33.8207C0.677368 33.303 0.921006 32.8065 1.35468 32.4404C1.78836 32.0743 2.37656 31.8687 2.98987 31.8687L26.1149 29.4287L49.2399 31.8687C49.8532 31.8687 50.4414 32.0743 50.8751 32.4404C51.3087 32.8065 51.5524 33.303 51.5524 33.8207C51.5524 34.3384 51.3087 34.8349 50.8751 35.201C50.4414 35.567 49.8532 35.7727 49.2399 35.7727H2.98987C2.37656 35.7727 1.78836 35.567 1.35468 35.201C0.921006 34.8349 0.677368 34.3384 0.677368 33.8207ZM0.677368 18.2046C0.677368 17.6869 0.921006 17.1904 1.35468 16.8243C1.78836 16.4582 2.37656 16.2526 2.98987 16.2526H26.1149H49.2399C49.8532 16.2526 50.4414 16.4582 50.8751 16.8243C51.3087 17.1904 51.5524 17.6869 51.5524 18.2046C51.5524 18.7223 51.3087 19.2188 50.8751 19.5849C50.4414 19.9509 49.8532 20.1566 49.2399 20.1566H26.1149H2.98987C2.37656 20.1566 1.78836 19.9509 1.35468 19.5849C0.921006 19.2188 0.677368 18.7223 0.677368 18.2046ZM0.677368 2.58849C0.677368 2.07078 0.921006 1.57428 1.35468 1.20821C1.78836 0.842133 2.37656 0.636475 2.98987 0.636475H26.1149H49.2399C49.8532 0.636475 50.4414 0.842133 50.8751 1.20821C51.3087 1.57428 51.5524 2.07078 51.5524 2.58849C51.5524 3.10619 51.3087 3.60269 50.8751 3.96877C50.4414 4.33484 49.8532 4.5405 49.2399 4.5405L26.1149 6.98051L2.98987 4.5405C2.37656 4.5405 1.78836 4.33484 1.35468 3.96877C0.921006 3.60269 0.677368 3.10619 0.677368 2.58849Z" fill="#FF7600"/>
</svg>
